<mxfile host="app.diagrams.net" modified="2023-04-27T10:10:59.932Z" agent="Mozilla/5.0 (Windows NT 10.0; Win64; x64; rv:109.0) Gecko/20100101 Firefox/112.0" etag="Z3LuWWccNQuRvBUL_59R" version="21.1.7" type="device">
  <diagram name="Page-1" id="nnIyuB3O6zKkYx7QUWoN">
    <mxGraphModel dx="377" dy="695" grid="1" gridSize="10" guides="1" tooltips="1" connect="1" arrows="1" fold="1" page="1" pageScale="1" pageWidth="850" pageHeight="1100" math="0" shadow="0">
      <root>
        <mxCell id="0" />
        <mxCell id="1" parent="0" />
        <mxCell id="89FDHUoP6eWwGHrtkOvl-2" style="edgeStyle=orthogonalEdgeStyle;rounded=0;orthogonalLoop=1;jettySize=auto;html=1;" parent="1" source="89FDHUoP6eWwGHrtkOvl-3" target="89FDHUoP6eWwGHrtkOvl-5" edge="1">
          <mxGeometry relative="1" as="geometry" />
        </mxCell>
        <mxCell id="89FDHUoP6eWwGHrtkOvl-3" value="&lt;div&gt;&lt;b&gt;Idle&lt;/b&gt;&lt;/div&gt;&lt;div&gt;CountEnable &amp;lt;= 0&lt;br&gt;&lt;/div&gt;&lt;div&gt;&lt;br&gt;&lt;/div&gt;" style="ellipse;whiteSpace=wrap;html=1;aspect=fixed;" parent="1" vertex="1">
          <mxGeometry x="240" y="79.94" width="80" height="80" as="geometry" />
        </mxCell>
        <mxCell id="89FDHUoP6eWwGHrtkOvl-4" style="edgeStyle=orthogonalEdgeStyle;rounded=0;orthogonalLoop=1;jettySize=auto;html=1;exitX=0.5;exitY=1;exitDx=0;exitDy=0;entryX=0.5;entryY=0;entryDx=0;entryDy=0;" parent="1" source="89FDHUoP6eWwGHrtkOvl-5" target="89FDHUoP6eWwGHrtkOvl-6" edge="1">
          <mxGeometry relative="1" as="geometry">
            <mxPoint x="590" y="239.88" as="targetPoint" />
            <Array as="points" />
          </mxGeometry>
        </mxCell>
        <mxCell id="C_oLd9yWUoZXLrxIwL-h-3" style="edgeStyle=orthogonalEdgeStyle;rounded=0;orthogonalLoop=1;jettySize=auto;html=1;exitX=0.5;exitY=0;exitDx=0;exitDy=0;entryX=0.5;entryY=0;entryDx=0;entryDy=0;" edge="1" parent="1" source="89FDHUoP6eWwGHrtkOvl-5" target="89FDHUoP6eWwGHrtkOvl-3">
          <mxGeometry relative="1" as="geometry">
            <mxPoint x="280" y="19.94" as="targetPoint" />
            <Array as="points">
              <mxPoint x="590" y="20" />
              <mxPoint x="280" y="20" />
            </Array>
          </mxGeometry>
        </mxCell>
        <mxCell id="89FDHUoP6eWwGHrtkOvl-5" value="&lt;div&gt;&lt;b&gt;RCV Start&lt;/b&gt;&lt;br&gt;&lt;/div&gt;" style="ellipse;whiteSpace=wrap;html=1;aspect=fixed;" parent="1" vertex="1">
          <mxGeometry x="550" y="79.88" width="80" height="80" as="geometry" />
        </mxCell>
        <mxCell id="89FDHUoP6eWwGHrtkOvl-6" value="&lt;div style=&quot;font-size: 10px;&quot;&gt;&lt;b&gt;RCV Data&lt;/b&gt;&lt;font style=&quot;font-size: 10px;&quot;&gt;&lt;br&gt;&lt;/font&gt;&lt;/div&gt;" style="ellipse;whiteSpace=wrap;html=1;aspect=fixed;" parent="1" vertex="1">
          <mxGeometry x="550" y="199.88" width="80" height="80" as="geometry" />
        </mxCell>
        <mxCell id="C_oLd9yWUoZXLrxIwL-h-17" style="edgeStyle=orthogonalEdgeStyle;rounded=0;orthogonalLoop=1;jettySize=auto;html=1;exitX=0.5;exitY=0;exitDx=0;exitDy=0;entryX=0.5;entryY=1;entryDx=0;entryDy=0;" edge="1" parent="1" source="89FDHUoP6eWwGHrtkOvl-8" target="89FDHUoP6eWwGHrtkOvl-3">
          <mxGeometry relative="1" as="geometry" />
        </mxCell>
        <mxCell id="89FDHUoP6eWwGHrtkOvl-8" value="&lt;div&gt;&lt;b&gt;RCV End&lt;/b&gt;&lt;br&gt;&lt;/div&gt;" style="ellipse;whiteSpace=wrap;html=1;aspect=fixed;" parent="1" vertex="1">
          <mxGeometry x="240" y="199.94" width="80" height="80" as="geometry" />
        </mxCell>
        <mxCell id="89FDHUoP6eWwGHrtkOvl-9" value="" style="edgeStyle=orthogonalEdgeStyle;rounded=0;orthogonalLoop=1;jettySize=auto;html=1;" parent="1" source="89FDHUoP6eWwGHrtkOvl-10" target="89FDHUoP6eWwGHrtkOvl-3" edge="1">
          <mxGeometry relative="1" as="geometry" />
        </mxCell>
        <mxCell id="89FDHUoP6eWwGHrtkOvl-10" value="Reset" style="rounded=0;whiteSpace=wrap;html=1;" parent="1" vertex="1">
          <mxGeometry x="130" y="109.94" width="60" height="20" as="geometry" />
        </mxCell>
        <mxCell id="89FDHUoP6eWwGHrtkOvl-11" value="&lt;div&gt;serialIn = 0&lt;br&gt;&lt;/div&gt;&lt;div&gt;countEnable&amp;lt;= 1&lt;br&gt;&lt;/div&gt;&lt;div&gt;countLoad &amp;lt;= 0&lt;/div&gt;&lt;div&gt;countValue &amp;lt;= 7&lt;/div&gt;&lt;div&gt;dataOut &amp;lt;= &quot;UUUUUUUU&quot;&lt;br&gt;&lt;/div&gt;&lt;div&gt;&amp;nbsp;&lt;br&gt;&lt;/div&gt;" style="text;html=1;strokeColor=none;fillColor=none;align=center;verticalAlign=middle;whiteSpace=wrap;rounded=0;" parent="1" vertex="1">
          <mxGeometry x="390" y="39.94" width="100" height="80" as="geometry" />
        </mxCell>
        <mxCell id="89FDHUoP6eWwGHrtkOvl-14" value="&lt;div&gt;countDone != 7&lt;/div&gt;&lt;div&gt;countLoad &amp;lt;= 1&lt;br&gt;&lt;/div&gt;" style="text;html=1;strokeColor=none;fillColor=none;align=center;verticalAlign=middle;whiteSpace=wrap;rounded=0;" parent="1" vertex="1">
          <mxGeometry x="470" y="189.94" width="100" height="20" as="geometry" />
        </mxCell>
        <mxCell id="89FDHUoP6eWwGHrtkOvl-16" value="&lt;div&gt;countDone = 1&lt;/div&gt;&lt;div&gt;SerialIn = 1&lt;/div&gt;&lt;div&gt;dataValid &amp;lt;= 1&lt;/div&gt;" style="text;html=1;strokeColor=none;fillColor=none;align=center;verticalAlign=middle;whiteSpace=wrap;rounded=0;" parent="1" vertex="1">
          <mxGeometry x="150" y="169.94" width="120" height="20" as="geometry" />
        </mxCell>
        <mxCell id="C_oLd9yWUoZXLrxIwL-h-1" value="&lt;div&gt;countDone = 7&lt;/div&gt;&lt;div&gt;serialIn = 0&lt;br&gt;&lt;/div&gt;" style="text;html=1;strokeColor=none;fillColor=none;align=center;verticalAlign=middle;whiteSpace=wrap;rounded=0;" vertex="1" parent="1">
          <mxGeometry x="590" y="159.88" width="100" height="30.06" as="geometry" />
        </mxCell>
        <mxCell id="C_oLd9yWUoZXLrxIwL-h-2" value="&lt;div&gt;countDone = 1&lt;br&gt;&lt;/div&gt;&lt;div&gt;serialIn = 1&lt;/div&gt;" style="text;html=1;strokeColor=none;fillColor=none;align=center;verticalAlign=middle;whiteSpace=wrap;rounded=0;" vertex="1" parent="1">
          <mxGeometry x="590" y="39.94" width="100" height="29.94" as="geometry" />
        </mxCell>
        <mxCell id="C_oLd9yWUoZXLrxIwL-h-18" style="edgeStyle=orthogonalEdgeStyle;rounded=0;orthogonalLoop=1;jettySize=auto;html=1;exitX=0;exitY=0.5;exitDx=0;exitDy=0;entryX=1;entryY=0.5;entryDx=0;entryDy=0;" edge="1" parent="1" source="C_oLd9yWUoZXLrxIwL-h-6" target="89FDHUoP6eWwGHrtkOvl-8">
          <mxGeometry relative="1" as="geometry" />
        </mxCell>
        <mxCell id="C_oLd9yWUoZXLrxIwL-h-6" value="dataOut(bits) &amp;lt;= serialIn;" style="rounded=1;whiteSpace=wrap;html=1;" vertex="1" parent="1">
          <mxGeometry x="400" y="209.94" width="80" height="60" as="geometry" />
        </mxCell>
        <mxCell id="C_oLd9yWUoZXLrxIwL-h-10" value="&lt;div&gt;bits != 7&lt;/div&gt;&lt;div&gt;bits += 1&lt;br&gt;&lt;/div&gt;" style="text;html=1;strokeColor=none;fillColor=none;align=center;verticalAlign=middle;whiteSpace=wrap;rounded=0;" vertex="1" parent="1">
          <mxGeometry x="470" y="269.94" width="100" height="20" as="geometry" />
        </mxCell>
        <mxCell id="C_oLd9yWUoZXLrxIwL-h-13" value="&lt;div&gt;bits = 7&lt;/div&gt;" style="text;html=1;strokeColor=none;fillColor=none;align=center;verticalAlign=middle;whiteSpace=wrap;rounded=0;" vertex="1" parent="1">
          <mxGeometry x="310" y="219.88" width="100" height="20" as="geometry" />
        </mxCell>
        <mxCell id="C_oLd9yWUoZXLrxIwL-h-23" value="" style="endArrow=classic;html=1;rounded=0;" edge="1" parent="1">
          <mxGeometry width="50" height="50" relative="1" as="geometry">
            <mxPoint x="480" y="260" as="sourcePoint" />
            <mxPoint x="555" y="260" as="targetPoint" />
          </mxGeometry>
        </mxCell>
        <mxCell id="C_oLd9yWUoZXLrxIwL-h-24" value="" style="endArrow=classic;html=1;rounded=0;" edge="1" parent="1">
          <mxGeometry width="50" height="50" relative="1" as="geometry">
            <mxPoint x="555" y="219.88" as="sourcePoint" />
            <mxPoint x="480" y="219.88" as="targetPoint" />
          </mxGeometry>
        </mxCell>
      </root>
    </mxGraphModel>
  </diagram>
</mxfile>
